<mxfile host="app.diagrams.net" modified="2022-10-27T02:36:11.396Z" agent="5.0 (Macintosh; Intel Mac OS X 10_15_7) AppleWebKit/537.36 (KHTML, like Gecko) Chrome/106.0.0.0 Safari/537.36" etag="iwx23hIt8d7O39fyBpJm" version="20.5.1" type="github">
  <diagram id="kwOh5a7j7TA8B1B5vvVX" name="Page-1">
    <mxGraphModel dx="946" dy="646" grid="1" gridSize="10" guides="1" tooltips="1" connect="1" arrows="1" fold="1" page="1" pageScale="1" pageWidth="827" pageHeight="1169" math="0" shadow="0">
      <root>
        <mxCell id="0" />
        <mxCell id="1" parent="0" />
        <mxCell id="IpqjuPP9rRSFkb_cN3aD-10" value="API&#39;s" style="rounded=1;whiteSpace=wrap;html=1;" vertex="1" parent="1">
          <mxGeometry x="520" y="185" width="120" height="150" as="geometry" />
        </mxCell>
        <mxCell id="IpqjuPP9rRSFkb_cN3aD-17" value="" style="edgeStyle=orthogonalEdgeStyle;rounded=0;orthogonalLoop=1;jettySize=auto;html=1;" edge="1" parent="1" source="IpqjuPP9rRSFkb_cN3aD-4" target="IpqjuPP9rRSFkb_cN3aD-7">
          <mxGeometry relative="1" as="geometry" />
        </mxCell>
        <mxCell id="IpqjuPP9rRSFkb_cN3aD-4" value="" style="sketch=0;points=[[0,0,0],[0.25,0,0],[0.5,0,0],[0.75,0,0],[1,0,0],[0,1,0],[0.25,1,0],[0.5,1,0],[0.75,1,0],[1,1,0],[0,0.25,0],[0,0.5,0],[0,0.75,0],[1,0.25,0],[1,0.5,0],[1,0.75,0]];outlineConnect=0;fontColor=#232F3E;gradientColor=#945DF2;gradientDirection=north;fillColor=#5A30B5;strokeColor=#ffffff;dashed=0;verticalLabelPosition=bottom;verticalAlign=top;align=center;html=1;fontSize=12;fontStyle=0;aspect=fixed;shape=mxgraph.aws4.resourceIcon;resIcon=mxgraph.aws4.api_gateway;" vertex="1" parent="1">
          <mxGeometry x="190" y="240" width="40" height="40" as="geometry" />
        </mxCell>
        <mxCell id="IpqjuPP9rRSFkb_cN3aD-21" value="" style="edgeStyle=orthogonalEdgeStyle;rounded=0;orthogonalLoop=1;jettySize=auto;html=1;" edge="1" parent="1" source="IpqjuPP9rRSFkb_cN3aD-6" target="IpqjuPP9rRSFkb_cN3aD-4">
          <mxGeometry relative="1" as="geometry" />
        </mxCell>
        <mxCell id="IpqjuPP9rRSFkb_cN3aD-6" value="devices" style="sketch=0;outlineConnect=0;gradientColor=none;fontColor=#545B64;strokeColor=none;fillColor=#879196;dashed=0;verticalLabelPosition=bottom;verticalAlign=top;align=center;html=1;fontSize=12;fontStyle=0;aspect=fixed;shape=mxgraph.aws4.illustration_devices;pointerEvents=1" vertex="1" parent="1">
          <mxGeometry x="20" y="240" width="54.79" height="40" as="geometry" />
        </mxCell>
        <mxCell id="IpqjuPP9rRSFkb_cN3aD-15" value="" style="edgeStyle=orthogonalEdgeStyle;rounded=0;orthogonalLoop=1;jettySize=auto;html=1;" edge="1" parent="1" source="IpqjuPP9rRSFkb_cN3aD-7" target="IpqjuPP9rRSFkb_cN3aD-10">
          <mxGeometry relative="1" as="geometry" />
        </mxCell>
        <mxCell id="IpqjuPP9rRSFkb_cN3aD-20" value="" style="edgeStyle=orthogonalEdgeStyle;rounded=0;orthogonalLoop=1;jettySize=auto;html=1;" edge="1" parent="1" source="IpqjuPP9rRSFkb_cN3aD-7" target="IpqjuPP9rRSFkb_cN3aD-12">
          <mxGeometry relative="1" as="geometry" />
        </mxCell>
        <mxCell id="IpqjuPP9rRSFkb_cN3aD-7" value="Rate Limiter&lt;br&gt;Nodes" style="label;whiteSpace=wrap;html=1;image=img/clipart/Gear_128x128.png" vertex="1" parent="1">
          <mxGeometry x="320" y="240" width="110" height="40" as="geometry" />
        </mxCell>
        <mxCell id="IpqjuPP9rRSFkb_cN3aD-9" value="" style="aspect=fixed;perimeter=ellipsePerimeter;html=1;align=center;shadow=0;dashed=0;fontColor=#4277BB;labelBackgroundColor=#ffffff;fontSize=12;spacingTop=3;image;image=img/lib/ibm/miscellaneous/microservices_application.svg;" vertex="1" parent="1">
          <mxGeometry x="510" y="180" width="40" height="40" as="geometry" />
        </mxCell>
        <mxCell id="IpqjuPP9rRSFkb_cN3aD-19" value="" style="edgeStyle=orthogonalEdgeStyle;rounded=0;orthogonalLoop=1;jettySize=auto;html=1;startArrow=classic;startFill=1;endArrow=none;endFill=0;" edge="1" parent="1" source="IpqjuPP9rRSFkb_cN3aD-11" target="IpqjuPP9rRSFkb_cN3aD-13">
          <mxGeometry relative="1" as="geometry" />
        </mxCell>
        <mxCell id="IpqjuPP9rRSFkb_cN3aD-11" value="" style="outlineConnect=0;dashed=0;verticalLabelPosition=bottom;verticalAlign=top;align=center;html=1;shape=mxgraph.aws3.cache_node;fillColor=#2E73B8;gradientColor=none;" vertex="1" parent="1">
          <mxGeometry x="310" y="360" width="40" height="40" as="geometry" />
        </mxCell>
        <mxCell id="IpqjuPP9rRSFkb_cN3aD-12" value="" style="sketch=0;aspect=fixed;html=1;points=[];align=center;image;fontSize=12;image=img/lib/mscae/Cache_Redis_Product.svg;" vertex="1" parent="1">
          <mxGeometry x="350" y="118" width="50" height="42" as="geometry" />
        </mxCell>
        <mxCell id="IpqjuPP9rRSFkb_cN3aD-13" value="Rate Limit Rules" style="rounded=1;whiteSpace=wrap;html=1;" vertex="1" parent="1">
          <mxGeometry x="319" y="440" width="121" height="40" as="geometry" />
        </mxCell>
        <mxCell id="IpqjuPP9rRSFkb_cN3aD-16" value="success" style="text;html=1;align=center;verticalAlign=middle;resizable=0;points=[];autosize=1;strokeColor=none;fillColor=none;" vertex="1" parent="1">
          <mxGeometry x="430" y="250" width="70" height="30" as="geometry" />
        </mxCell>
        <mxCell id="IpqjuPP9rRSFkb_cN3aD-18" value="" style="curved=1;endArrow=classic;html=1;rounded=0;exitX=0.25;exitY=1;exitDx=0;exitDy=0;" edge="1" parent="1" source="IpqjuPP9rRSFkb_cN3aD-7" target="IpqjuPP9rRSFkb_cN3aD-11">
          <mxGeometry width="50" height="50" relative="1" as="geometry">
            <mxPoint x="380" y="370" as="sourcePoint" />
            <mxPoint x="430" y="320" as="targetPoint" />
            <Array as="points">
              <mxPoint x="430" y="370" />
              <mxPoint x="260" y="300" />
              <mxPoint x="310" y="320" />
            </Array>
          </mxGeometry>
        </mxCell>
        <mxCell id="IpqjuPP9rRSFkb_cN3aD-22" value="requests" style="text;html=1;align=center;verticalAlign=middle;resizable=0;points=[];autosize=1;strokeColor=none;fillColor=none;" vertex="1" parent="1">
          <mxGeometry x="90" y="250" width="70" height="30" as="geometry" />
        </mxCell>
        <mxCell id="IpqjuPP9rRSFkb_cN3aD-23" value="throttle&lt;br&gt;check" style="text;html=1;align=center;verticalAlign=middle;resizable=0;points=[];autosize=1;strokeColor=none;fillColor=none;" vertex="1" parent="1">
          <mxGeometry x="240" y="225" width="60" height="40" as="geometry" />
        </mxCell>
        <mxCell id="IpqjuPP9rRSFkb_cN3aD-24" value="API &lt;br&gt;gateway" style="text;html=1;align=center;verticalAlign=middle;resizable=0;points=[];autosize=1;strokeColor=none;fillColor=none;" vertex="1" parent="1">
          <mxGeometry x="175" y="280" width="70" height="40" as="geometry" />
        </mxCell>
        <mxCell id="IpqjuPP9rRSFkb_cN3aD-25" value="" style="curved=1;endArrow=none;html=1;rounded=0;endFill=0;startArrow=classic;startFill=1;" edge="1" parent="1" target="IpqjuPP9rRSFkb_cN3aD-24">
          <mxGeometry width="50" height="50" relative="1" as="geometry">
            <mxPoint x="40" y="310" as="sourcePoint" />
            <mxPoint x="150" y="320" as="targetPoint" />
            <Array as="points">
              <mxPoint x="150" y="370" />
              <mxPoint x="220" y="380" />
            </Array>
          </mxGeometry>
        </mxCell>
        <mxCell id="IpqjuPP9rRSFkb_cN3aD-26" value="429 - &lt;br&gt;throttled&lt;br&gt;requests" style="text;html=1;align=center;verticalAlign=middle;resizable=0;points=[];autosize=1;strokeColor=none;fillColor=none;" vertex="1" parent="1">
          <mxGeometry x="90" y="350" width="70" height="60" as="geometry" />
        </mxCell>
        <mxCell id="IpqjuPP9rRSFkb_cN3aD-27" value="Centralized &lt;br&gt;Storage" style="text;html=1;align=center;verticalAlign=middle;resizable=0;points=[];autosize=1;strokeColor=none;fillColor=none;" vertex="1" parent="1">
          <mxGeometry x="400" y="119" width="80" height="40" as="geometry" />
        </mxCell>
        <mxCell id="IpqjuPP9rRSFkb_cN3aD-28" value="" style="outlineConnect=0;dashed=0;verticalLabelPosition=bottom;verticalAlign=top;align=center;html=1;shape=mxgraph.aws3.ec2;fillColor=#F58534;gradientColor=none;" vertex="1" parent="1">
          <mxGeometry x="330" y="240" width="40" height="40" as="geometry" />
        </mxCell>
      </root>
    </mxGraphModel>
  </diagram>
</mxfile>
